<?xml version="1.0" encoding="utf-8"?>
<!DOCTYPE svg PUBLIC "-//W3C//DTD SVG 1.1//EN" "http://www.w3.org/Graphics/SVG/1.1/DTD/svg11.dtd">
<svg xmlns="http://www.w3.org/2000/svg" xmlns:xlink="http://www.w3.org/1999/xlink" x="0px" y="0px" width="526px" height="140px" viewBox="0 0 526 140" enable-background="new 0 0 526 140" xml:space="preserve">
	<title>tarantul web development zone logo</title>
	<g>
		<path style="fill:rgba(255, 255, 255, 0.5)" d="M117.67,53.51A13.64,13.64,0,0,0,104,29.88c-2.24,1.3-7.89,6.43-14.32,12.6h-.17A13.4,13.4,0,0,1,79,40.93,14.83,14.83,0,0,1,72.37,32c0-.06-.08-.11-.09-.17,2-8.43,3.6-15.66,3.6-18.18a13.63,13.63,0,1,0-27.25,0c0,5,6,27.92,10,42.89A3.5,3.5,0,0,0,59,57.9.28.28,0,0,0,59,58a3.49,3.49,0,0,1-1.68,3.21,3.43,3.43,0,0,1-3.65-.15C42.83,50.15,24.92,32.46,20.47,29.88A13.64,13.64,0,0,0,6.83,53.51,39.19,39.19,0,0,0,13,55.94c7.28,7.64,6.93,20.09-1,28A35.48,35.48,0,0,0,6.83,86a13.63,13.63,0,1,0,13.63,23.6C24.92,107,42.83,89.35,53.69,78.43a3.46,3.46,0,0,1,3.65-.18A3.52,3.52,0,0,1,59,81.49c-4,14.89-10.4,39.26-10.4,44.4a13.63,13.63,0,1,0,27.25,0,34.84,34.84,0,0,0-.72-5.3c0-.07.07-.13.11-.23a19,19,0,0,1,9.31-11.73,20.73,20.73,0,0,1,15.49-1.81h.31a30.07,30.07,0,0,0,3.66,2.78A13.63,13.63,0,1,0,117.67,86c-1.79-1-6.86-2.75-13.22-4.69A20,20,0,0,1,105.24,58C111.22,56.1,116,54.5,117.67,53.51Zm-88,25c-3.75,1.06-7.36,2.11-10.59,3.1a24.31,24.31,0,0,0,.65-23.52c3.25,1,6.86,2,10.55,3.07A17.09,17.09,0,0,1,29.66,78.52Zm20.81-5.69C45.94,74,40.56,75.48,35.14,77a21.45,21.45,0,0,0,.4-14.35c5.3,1.47,10.53,2.87,14.93,4a3.4,3.4,0,0,1,0,6.17ZM70.62,38.46a18.72,18.72,0,0,0,6.18,6.11,18,18,0,0,0,8.1,2.54c-1.17,1.16-2.35,2.31-3.53,3.46a9.59,9.59,0,0,1-7.5-1.12,10.47,10.47,0,0,1-4.55-5.88C69.76,41.86,70.2,40.16,70.62,38.46ZM65.5,57.9a4,4,0,0,0,.39-1.36c.59-2.19,1.23-4.52,1.86-7a14.45,14.45,0,0,0,3.94,3.51A13.73,13.73,0,0,0,76.93,55c-2.19,2.16-4.26,4.24-6.12,6.1A3.4,3.4,0,0,1,65.48,58,.3.3,0,0,0,65.5,57.9Zm0,23.59a3.51,3.51,0,0,1,1.68-3.23,3.45,3.45,0,0,1,3.65.18l6.08,6.07a15.43,15.43,0,0,0-5.25,1.73,14.69,14.69,0,0,0-4,3.24C66.87,86.68,66.13,83.94,65.48,81.49ZM82.54,104.9a23.18,23.18,0,0,0-8.9,8.57c-1.26-5.48-2.88-12-4.52-18.3A10,10,0,0,1,73.67,90a11,11,0,0,1,7.65-1.09c4.63,4.57,9.43,9.23,13.49,13A24.61,24.61,0,0,0,82.54,104.9ZM98.68,79.64c-8.22-2.4-17.51-4.91-24.66-6.8a3.42,3.42,0,0,1,0-6.17c7.32-1.92,16.85-4.49,25.21-6.92A24.33,24.33,0,0,0,98.68,79.64Z" />
		<path style="fill:rgba(255, 255, 255, 0.5)" d="M343.64,54.75a4,4,0,0,0-4,4v26a2,2,0,0,1-2,2h-10a2,2,0,0,1-2-2v-26a4,4,0,0,0-8,0v26a10,10,0,0,0,10,10h10a10,10,0,0,0,10-10v-26A4,4,0,0,0,343.64,54.75Zm14-10a4,4,0,0,0-4,4h0v42a4,4,0,0,0,8,0v-42A4,4,0,0,0,357.65,44.75Zm-48,18a4,4,0,0,0,0-8h-6v-6a4,4,0,1,0-8,0h0v6h-2a4,4,0,0,0,0,8h2v22a10,10,0,0,0,10,10h4a4,4,0,0,0,0-8h-4a2,2,0,0,1-2-2v-22Zm-70.05-8h-14a4,4,0,1,0,0,8h14a2,2,0,0,1,2,2v4h-12a10,10,0,0,0-10,10v6a10,10,0,0,0,10,10h10a10,10,0,0,0,10-10v-20A10,10,0,0,0,239.57,54.75Zm2,30a2,2,0,0,1-2,2h-10a2,2,0,0,1-2-2v-6a2,2,0,0,1,2-2h12Zm36-30h-18a4,4,0,0,0-4,4v32a4,4,0,1,0,8,0v-28h14a2,2,0,0,1,2,2v26a4,4,0,0,0,8,0v-26A10,10,0,0,0,277.6,54.75Zm-64,0h-4a10,10,0,0,0-10,10v26a4,4,0,0,0,8,0v-26a2,2,0,0,1,2-2h4a4,4,0,1,0,0-8Zm-56,8a4,4,0,1,0,0-8h-6v-6a4,4,0,1,0-8,0h0v6h-2a4,4,0,1,0,0,8h2v22a10,10,0,0,0,10,10h4a4,4,0,1,0,0-8h-4a2,2,0,0,1-2-2v-22Zm26-8h-14a4,4,0,1,0,0,8h14a2,2,0,0,1,2,2v4h-12a10,10,0,0,0-10,10v6a10,10,0,0,0,10,10h10a10,10,0,0,0,10-10v-20A10,10,0,0,0,183.54,54.75Zm2,30a2,2,0,0,1-2,2h-10a2,2,0,0,1-2-2v-6a2,2,0,0,1,2-2h12Z" />
		<g>
			<path style="fill:rgba(255, 255, 255, 0.5)" d="M375,87.55v6.23h-3.77V87.55Z" />
			<path style="fill:rgba(255, 255, 255, 0.5)" d="M409.43,52.78v3.61L387.78,90.33h22v3.44H384V90l21.57-33.95H384.5V52.78Z" />
			<path style="fill:rgba(255, 255, 255, 0.5)" d="M419.92,58.93c3.69-6.23,9-7.3,12.22-7.3s8.53,1.07,12.22,7.3c2.79,4.76,3.2,10.66,3.2,14.35s-.41,9.59-3.2,14.35c-3.69,6.23-9,7.3-12.22,7.3s-8.53-1.07-12.22-7.3c-2.79-4.76-3.2-10.66-3.2-14.35S417.14,63.68,419.92,58.93Zm2.87,25.67c2.62,5.9,7.05,6.81,9.35,6.81s6.72-.9,9.35-6.81a31.54,31.54,0,0,0,2-11.4c0-3.36-.49-8.2-2-11.48C439.36,56.8,435.5,55,432.14,55s-7.22,1.8-9.43,6.72c-1.48,3.28-2,8.12-2,11.48A31.52,31.52,0,0,0,422.79,84.59Z" />
			<path style="fill:rgba(255, 255, 255, 0.5)" d="M461.91,52.78l.16,6.56a13.63,13.63,0,0,1,3.69-4.92A11.83,11.83,0,0,1,473.39,52c2.71,0,7.54.49,10.5,5.49,2,3.36,1.89,6.89,1.89,10.58V93.78h-3.94v-26c0-3.69-.33-6.31-1.31-8.2a8,8,0,0,0-7.63-4.18,10.11,10.11,0,0,0-8.61,4.84c-2,3.2-2.21,6.56-2.21,9.51v24h-3.85v-41Z" />
			<path style="fill:rgba(255, 255, 255, 0.5)" d="M525.7,80.49a18.25,18.25,0,0,1-2.79,8,13.43,13.43,0,0,1-12.05,6.4,13.63,13.63,0,0,1-12.3-7.13c-2.46-4.35-3-9.76-3-14.51,0-4.51.41-10,3-14.51a13.24,13.24,0,0,1,12.14-7.13,13.55,13.55,0,0,1,12.38,7.13c2.62,4.51,2.87,10.33,2.87,14.43v1.07h-26.4c-.16,3.44.41,8.28,2,11.32a10.61,10.61,0,0,0,18.37,1,13.13,13.13,0,0,0,1.89-6.07ZM501.51,60.81a24.22,24.22,0,0,0-2,10.33h22.3c.08-2.87-.41-7.46-1.89-10.33A10.4,10.4,0,0,0,510.7,55,10.16,10.16,0,0,0,501.51,60.81Z" />
		</g>
	</g>
</svg>
