<svg version="1.1" xmlns="http://www.w3.org/2000/svg" width="640" height="640" viewBox="0 0 640 640">
	<path fill="rgb(180, 180, 180)" d="M319.955 64.058c-16.519 0-30.613 9.059-40.825 20.579s-17.994 26.131-24.411 43.24c-12.403 33.067-19.444 75.988-19.911 123.306-13.062 34.55-37.203 65.685-59.071 92.313-12.342-22.668-26.41-56.329-26.41-108.809-0.048-1.827-0.319-3.572-0.785-5.233l0.035 0.15c-2.004-36.004-22.991-59.942-43.074-69.984-21.082-10.542-41.491-10.247-41.491-10.247v42.656c0 0 11.585 0.295 22.495 5.749 10.865 5.434 20.089 12.021 20.161 36.657 0 0.037-0.001 0.082-0.001 0.125s0 0.087 0.001 0.132v-0.006c0 27.253-9.556 57.127-20.079 86.065s-22.579 56.126-22.579 84.565c0 47.030 24.474 91.449 68.484 122.057s106.948 48.573 187.458 48.573c56.843 0 108.644-15.14 147.551-41.075 12.622-8.413 23.25-18.538 32.827-29.328 44.089-36.154 60.441-98.278 68.651-150.966 8.34-53.511 6.914-99.228 6.914-99.228-0.373-11.49-9.774-20.661-21.321-20.661-0.003 0-0.005 0-0.008 0h-150.049c-1.797-40.699-8.396-77.661-19.33-106.81-6.416-17.109-14.2-31.719-24.411-43.24s-24.306-20.579-40.825-20.579zM319.955 106.714c1.141 0 3.817 0.499 8.914 6.249s11.164 16.141 16.331 29.909c8.646 23.055 14.733 55.551 16.581 91.814h-83.647c1.846-36.262 7.933-68.759 16.581-91.814 5.164-13.77 11.233-24.16 16.331-29.909s7.773-6.249 8.914-6.249zM269.882 277.344h102.892c24.004 36.884 61.824 66.064 88.564 90.646 19.371 17.806 29.243 37.657 29.243 58.652 0 26.696-16.166 52.354-46.739 72.734s-74.729 33.908-123.888 33.908c-74.121 0-128.491-16.818-163.129-40.907s-50.154-54.283-50.154-87.064c0-14.219 9.273-40.351 20.079-70.068 0.43-1.184 0.485-2.803 0.916-3.999 14.659 38.686 30.328 65.985 30.328 65.985 3.943 4.924 9.953 8.050 16.691 8.050 5.834 0 11.12-2.342 14.972-6.135l-0.003 0.003c29.275-28.891 60.381-74.083 80.232-121.807zM427.181 277.344h104.642c0.033 13.384 0.926 32.707-4.999 70.734-1.467 9.417-3.677 18.98-5.914 28.494-7.47-14.784-17.945-28.304-30.659-39.991-20.756-19.081-44.39-39.321-63.070-59.237z"></path>
</svg>
