<?xml version="1.0" encoding="utf-8"?>
<!DOCTYPE svg PUBLIC "-//W3C//DTD SVG 1.1//EN" "http://www.w3.org/Graphics/SVG/1.1/DTD/svg11.dtd">
<svg version="1.1" xmlns="http://www.w3.org/2000/svg" width="1024" height="1024" viewBox="0 0 1024 1024">
<path fill="#699bf5" d="M800.742 639.002c30.669-4.941 151.68-33.126 195.866-190.106-33.357 32.717-101.478 88.704-177.408 88.704h-0.666c0.41-8.294 0.666-16.794 0.666-25.6 94.234 0 179.2-102.4 179.2-102.4h25.6c0 278.451-238.925 341.325-238.925 341.325l-84.915 23.578c39.936-26.394 78.643-68.531 100.582-135.501z"></path>
<path fill="#b4cdfa" d="M39.629 422.4c8.96-44.39 65.638-56.627 125.363-69.53 84.659-18.253 180.608-38.963 180.608-148.070 0-0.563 0.179-32.435-24.499-57.446-21.018-21.325-53.914-32.154-97.792-32.154-36.531 0-64.486 9.6-83.072 28.544-25.395 25.882-25.037 60.493-25.037 60.8 0 0.64 0.102 32.128 18.534 50.586 9.139 9.19 21.248 13.67 36.941 13.67 15.898 0 27.443-4.352 35.302-13.312 15.667-17.894 11.776-48.666 11.75-48.973l-1.869-14.054c0 0 14.49-0.486 14.669-0.486 7.194 0 20.429 0.486 32.973 4.173 26.88 7.962 30.899 24.883 30.899 34.253 0 59.878-63.872 80.41-125.619 100.275-62.259 20.019-121.293 39.014-129.434 91.725h0.282z"></path>
<path fill="#699bf5" d="M223.283 128c-32.691 0-57.446 8.166-73.523 24.32-21.581 21.606-21.76 51.891-21.76 52.71 0 0.256 0.41 26.547 14.72 40.986 6.63 6.733 15.77 9.984 27.955 9.984 17.792 0 23.68-6.682 25.626-8.883 9.754-11.059 9.574-32.358 8.755-38.784l-3.814-28.16 28.39-0.973 2.202-0.026c46.49 0 75.366 19.635 75.366 51.226 0 51.507-39.578 77.389-85.811 95.642 68.941-19.789 111.411-48.435 111.411-121.6 0-1.101-0.154-27.366-21.094-48.384-18.56-18.611-48.307-28.058-88.422-28.058zM223.283 102.4c137.626 0 135.117 102.4 135.117 102.4 0 205.517-307.2 123.725-307.2 230.4h-25.6c0-135.834 256-97.434 256-204.8 0-24.397-41.421-25.626-49.741-25.626-0.947 0-1.459 0.026-1.459 0.026s10.675 76.8-59.725 76.8c-68.992 0-68.275-76.8-68.275-76.8s-1.92-102.4 120.883-102.4v0z"></path>
<path fill="#d9e6fc" d="M588.8 320c21.208 0 38.4 17.192 38.4 38.4s-17.192 38.4-38.4 38.4v0c-21.208 0-38.4-17.192-38.4-38.4s17.192-38.4 38.4-38.4v0z"></path>
<path fill="#699bf5" d="M588.8 332.8c-14.106 0-25.6 11.494-25.6 25.6s11.494 25.6 25.6 25.6 25.6-11.494 25.6-25.6-11.494-25.6-25.6-25.6zM588.8 307.2c28.288 0 51.2 22.912 51.2 51.2s-22.912 51.2-51.2 51.2-51.2-22.912-51.2-51.2 22.912-51.2 51.2-51.2v0z"></path>
<path fill="#d9e6fc" d="M752.102 533.325c-26.931-36.403-90.957-110.925-163.302-110.925-72.499 0-136.448 74.547-163.328 110.925h326.63z"></path>
<path fill="#699bf5" d="M588.8 435.2c-55.45 0-106.573 48.87-137.037 85.325h274.227c-32.794-38.912-84.48-85.325-137.19-85.325zM588.8 409.6c103.68 0 187.725 136.525 187.725 136.525h-375.475c0.026 0 84.070-136.525 187.75-136.525v0z"></path>
<path fill="#d9e6fc" d="M721.818 908.8c-13.056-12.979-42.317-29.773-85.811-37.939l-8.090-1.536-1.946-8.013c-4.224-17.254-19.507-29.312-37.171-29.312s-32.947 12.058-37.171 29.312l-1.946 8.013-8.090 1.536c-43.469 8.166-72.755 24.986-85.811 37.939h266.035z"></path>
<path fill="#699bf5" d="M588.8 844.8c-11.75 0-21.914 8.038-24.73 19.558l-3.917 16.051-16.23 3.046c-16.998 3.2-31.437 7.68-43.264 12.544h176.256c-11.827-4.864-26.24-9.37-43.264-12.544l-16.23-3.046-3.917-16.051c-2.79-11.52-12.954-19.558-24.704-19.558zM588.8 819.2c24.090 0 44.134 16.691 49.613 39.091 60.339 11.341 103.987 40.858 103.987 63.309h-307.2c0-22.451 43.648-51.968 103.987-63.309 5.478-22.4 25.523-39.091 49.613-39.091v0z"></path>
<path fill="#d9e6fc" d="M588.851 806.4c11.597-0.128 236.262-6.426 242.995-281.6h-396.646c-10.88-0.23-256.717-6.451-337.741-76.8h-72.96c247.654 347.955 557.21 358.246 564.352 358.4z"></path>
<path fill="#699bf5" d="M49.664 460.8c242.458 324.506 536.371 332.749 538.906 332.8 9.114-0.102 216.704-5.504 229.965-256h-383.898c-26.624-0.589-255.565-7.629-341.811-76.8h-43.162zM0 435.2h102.4c73.958 71.117 332.8 76.8 332.8 76.8h409.6c0 305.766-256 307.2-256 307.2s-330.214-3.533-588.8-384v0z"></path>
</svg>
