<svg version="1.1" xmlns="http://www.w3.org/2000/svg" width="1024" height="1024" viewBox="0 0 1024 1024">
	<path fill="rgb(180, 180, 180)" d="M375.596 102.789c-56.096 0-102.303 46.207-102.303 102.303s46.207 102.303 102.303 102.303c56.096 0 102.303-46.207 102.303-102.303s-46.207-102.303-102.303-102.303zM375.596 170.991c19.237 0 34.101 14.864 34.101 34.101s-14.864 34.101-34.101 34.101c-19.237 0-34.101-14.864-34.101-34.101s14.864-34.101 34.101-34.101zM34.587 239.192c-0.144-0.002-0.312-0.003-0.483-0.003-18.835 0-34.104 15.269-34.104 34.104s15.269 34.104 34.104 34.104c0.169 0 0.339-0.001 0.508-0.003h-0.026c19.197 0 34.101 14.904 34.101 34.101v204.606c0 94.703 56.11 176.205 136.404 214.729v23.977c0 38.020-30.181 68.202-68.202 68.202v68.202c74.922 0 136.404-61.482 136.404-136.404v-3.463c11.242 1.637 22.419 3.463 34.101 3.463h409.211c11.682 0 22.859-1.827 34.101-3.463v3.463c0 74.922 61.482 136.404 136.404 136.404v-68.202c-38.020 0-68.202-30.181-68.202-68.202v-23.977c80.294-38.524 136.404-120.027 136.404-214.729v-204.606c0-19.197 14.904-34.101 34.101-34.101 0.144 0.002 0.312 0.003 0.483 0.003 18.835 0 34.104-15.269 34.104-34.104s-15.269-34.104-34.104-34.104c-0.169 0-0.339 0.001-0.508 0.003h0.026c-56.098 0-102.303 46.205-102.303 102.303v34.101h-68.202v68.202h68.202v102.303c0 94.584-75.92 170.505-170.505 170.505h-409.211c-94.584 0-170.505-75.92-170.505-170.505v-102.303h349.535v-68.202h-349.535v-34.101c0-56.098-46.205-102.303-102.303-102.303zM648.404 375.596c-56.096 0-102.303 46.207-102.303 102.303s46.207 102.303 102.303 102.303c56.096 0 102.303-46.207 102.303-102.303s-46.207-102.303-102.303-102.303zM648.404 443.798c19.237 0 34.101 14.864 34.101 34.101s-14.864 34.101-34.101 34.101c-19.237 0-34.101-14.864-34.101-34.101s14.864-34.101 34.101-34.101z"></path>
</svg>
