<?xml version="1.0" encoding="utf-8"?>
<!DOCTYPE svg PUBLIC "-//W3C//DTD SVG 1.1//EN" "http://www.w3.org/Graphics/SVG/1.1/DTD/svg11.dtd">
<svg version="1.1" xmlns="http://www.w3.org/2000/svg" width="1024" height="1024" viewBox="0 0 1024 1024">
<path fill="#8fb4f8" d="M157.749 970.105c-24.603 0-46.322-14.659-55.377-37.349-32.499-81.381-86.501-246.38-88.819-447.703h996.891c-2.344 200.488-56.374 365.918-88.873 447.649-9.027 22.717-30.774 37.403-55.404 37.403h-708.419z"></path>
<path fill="#699bf5" d="M996.729 498.526c-4.527 192.188-56.266 350.208-87.66 429.191-6.979 17.569-23.821 28.915-42.874 28.915h-708.474c-19.052 0-35.867-11.318-42.846-28.861-31.394-78.686-83.105-236.356-87.606-429.244h969.459zM1024 471.579h-1024c0 212.103 58.234 386.911 89.842 466.189 11.102 27.837 37.915 45.811 67.88 45.811h708.446c30.019 0 56.832-18.027 67.907-45.892 31.636-79.522 89.923-254.787 89.923-466.108v0z"></path>
<path fill="#d9e6fc" d="M203.399 862.316c-9 0-17.219-5.066-20.884-12.935-18.027-38.723-59.5-150.717-61.198-364.328h781.366c-1.698 213.612-43.169 325.605-61.198 364.328-3.665 7.868-11.857 12.935-20.884 12.935h-617.202z"></path>
<path fill="#699bf5" d="M889.047 498.526c-3.234 202.078-42.496 308.062-59.769 345.142-1.455 3.126-4.878 5.174-8.677 5.174h-617.202c-3.8 0-7.195-2.048-8.677-5.174-17.274-37.080-56.536-143.063-59.769-345.142h754.095zM916.211 471.579h-808.421c0 222.262 42.011 339.483 62.518 383.461 5.956 12.827 18.944 20.749 33.092 20.749h617.202c14.12 0 27.136-7.922 33.092-20.749 20.507-43.978 62.518-161.199 62.518-383.461v0z"></path>
<path fill="#d9e6fc" d="M138.563 582.656h746.9c1.617-22.905 2.829-47.265 3.396-73.351l0.404-37.726h-754.526l0.404 37.726c0.593 26.085 1.779 50.473 3.422 73.351zM323.368 53.895c-52.089 0-94.316 42.226-94.316 94.316s42.226 94.316 94.316 94.316v0c52.089 0 94.316-42.226 94.316-94.316s-42.226-94.316-94.316-94.316v0z"></path>
<path fill="#699bf5" d="M323.368 67.368c44.571 0 80.842 36.272 80.842 80.842s-36.272 80.842-80.842 80.842-80.842-36.272-80.842-80.842 36.272-80.842 80.842-80.842zM323.368 40.421c-59.526 0-107.789 48.263-107.789 107.789s48.263 107.789 107.789 107.789 107.789-48.263 107.789-107.789-48.263-107.789-107.789-107.789v0z"></path>
<path fill="#d9e6fc" d="M592.842 215.579c-37.206 0-67.368 30.162-67.368 67.368s30.162 67.368 67.368 67.368v0c37.206 0 67.368-30.162 67.368-67.368s-30.162-67.368-67.368-67.368v0z"></path>
<path fill="#699bf5" d="M592.842 229.053c29.723 0 53.895 24.172 53.895 53.895s-24.172 53.895-53.895 53.895-53.895-24.172-53.895-53.895 24.172-53.895 53.895-53.895zM592.842 202.105c-44.652 0-80.842 36.191-80.842 80.842s36.191 80.842 80.842 80.842 80.842-36.191 80.842-80.842-36.191-80.842-80.842-80.842v0z"></path>
<path fill="#d9e6fc" d="M646.737 619.789c-37.206 0-67.368 30.162-67.368 67.368s30.162 67.368 67.368 67.368v0c37.206 0 67.368-30.162 67.368-67.368s-30.162-67.368-67.368-67.368v0z"></path>
<path fill="#699bf5" d="M646.737 633.263c29.723 0 53.895 24.172 53.895 53.895s-24.172 53.895-53.895 53.895-53.895-24.172-53.895-53.895 24.172-53.895 53.895-53.895zM646.737 606.316c-44.652 0-80.842 36.191-80.842 80.842s36.191 80.842 80.842 80.842 80.842-36.191 80.842-80.842-36.191-80.842-80.842-80.842v0z"></path>
<path fill="#d9e6fc" d="M417.684 458.105c-44.647 0-80.842 36.195-80.842 80.842s36.195 80.842 80.842 80.842v0c44.647 0 80.842-36.195 80.842-80.842s-36.195-80.842-80.842-80.842v0z"></path>
<path fill="#699bf5" d="M417.684 471.579c37.134 0 67.368 30.235 67.368 67.368s-30.235 67.368-67.368 67.368-67.368-30.235-67.368-67.368 30.235-67.368 67.368-67.368zM417.684 444.632c-52.089 0-94.316 42.226-94.316 94.316s42.226 94.316 94.316 94.316 94.316-42.226 94.316-94.316-42.226-94.316-94.316-94.316v0z"></path>
</svg>