<?xml version="1.0" encoding="utf-8"?>
<!DOCTYPE svg PUBLIC "-//W3C//DTD SVG 1.1//EN" "http://www.w3.org/Graphics/SVG/1.1/DTD/svg11.dtd">
<svg xmlns="http://www.w3.org/2000/svg" xmlns:xlink="http://www.w3.org/1999/xlink" x="0px" y="0px" width="230px" height="48px" viewBox="0 0 230 48" enable-background="new 0 0 230 48" xml:space="preserve">
	<path fill-rule="evenodd" fill="rgba(105, 155, 245, 1)" d="M229.988,29.335 C229.766,29.762 229.368,29.975 228.882,29.975 C227.067,29.975 225.032,28.534 224.324,26.398 C224.059,25.651 223.926,24.690 223.882,23.516 C222.864,25.010 221.448,26.451 219.634,27.840 C217.820,29.281 216.138,29.975 214.678,29.975 C214.280,29.975 213.749,29.869 213.085,29.602 C212.422,29.335 211.979,28.961 211.847,28.480 C211.625,27.787 211.492,27.093 211.492,26.345 C211.492,25.651 211.537,25.010 211.670,24.423 C212.024,22.768 213.837,21.700 215.209,21.700 C215.430,21.700 215.563,21.860 215.563,22.234 C215.563,23.088 215.298,24.957 215.298,26.185 C215.298,26.879 215.475,27.199 215.829,27.199 C216.493,27.199 217.510,26.772 218.926,25.918 C220.297,25.064 221.227,24.209 221.669,23.355 C218.837,23.355 216.669,22.127 216.669,18.924 C216.669,17.055 217.244,15.240 218.395,13.585 C219.501,11.930 220.873,11.076 222.510,11.076 C225.032,11.076 226.669,13.104 226.669,16.361 C226.669,17.749 226.448,19.137 226.005,20.526 C226.227,20.526 226.979,20.419 227.289,20.419 C227.953,20.419 228.306,20.793 228.306,21.487 C228.306,21.914 227.997,23.088 227.997,23.675 C227.997,25.331 228.660,27.252 229.988,29.335 ZM223.262,12.944 C220.917,13.104 220.342,16.041 220.431,17.749 C220.431,19.511 222.200,20.793 223.837,20.793 C224.413,20.366 225.209,17.856 225.209,15.934 C225.209,13.959 224.545,12.944 223.262,12.944 ZM203.086,29.655 C199.325,29.655 197.643,28.160 197.643,23.462 C197.643,22.554 197.732,21.647 197.865,20.686 C198.661,16.148 199.546,13.638 200.564,13.104 C201.095,12.838 202.157,12.731 203.705,12.731 C204.280,12.731 204.546,12.944 204.546,13.371 C204.502,13.959 203.484,16.575 203.086,17.696 C203.042,17.749 202.422,20.793 202.422,21.754 L202.422,21.967 C202.776,21.754 203.838,21.059 204.856,20.632 C205.652,20.259 206.537,20.099 207.466,20.099 C208.749,20.099 209.723,21.700 209.723,23.675 C209.723,25.277 208.971,26.665 207.422,27.840 C205.873,29.068 204.413,29.655 203.086,29.655 ZM207.201,22.288 C206.891,21.914 206.493,21.754 205.917,21.754 C204.856,21.754 203.086,22.501 202.422,23.302 C202.422,23.516 202.378,23.836 202.378,24.049 C202.378,25.972 202.953,28.000 203.440,28.000 C204.369,28.000 205.298,27.573 206.272,26.665 C207.201,25.811 207.688,24.850 207.688,23.782 C207.688,23.142 207.510,22.661 207.201,22.288 ZM183.396,30.829 C181.139,30.829 180.033,29.121 180.033,25.758 C180.033,21.220 180.432,15.614 181.184,8.940 C181.405,6.965 182.069,5.150 183.175,3.601 C184.281,2.053 185.564,1.145 186.980,0.772 C187.378,0.665 187.776,0.611 188.086,0.611 C190.608,0.611 191.980,3.067 191.980,5.470 C191.980,7.552 189.635,12.197 184.900,19.404 L184.856,20.899 C186.405,18.070 188.706,15.347 190.254,14.867 C190.829,14.706 191.405,14.600 192.024,14.600 C194.104,14.600 195.166,15.881 195.166,18.497 C195.166,21.594 193.882,24.423 191.316,26.986 C188.750,29.548 186.095,30.829 183.396,30.829 ZM188.706,11.236 C189.768,8.940 190.298,7.392 190.298,6.591 C190.298,4.616 189.635,3.601 188.307,3.601 C187.024,3.601 186.139,4.562 185.785,6.271 C185.431,7.979 185.343,8.780 185.299,10.542 L184.989,17.910 C186.360,15.721 187.599,13.531 188.706,11.236 ZM190.121,17.269 C189.546,17.269 188.661,17.856 187.555,19.030 C186.449,20.259 185.520,21.487 184.768,22.768 L184.679,25.010 C184.679,26.772 185.210,27.626 186.272,27.626 C187.644,27.626 188.927,26.719 190.166,24.957 C191.405,23.195 192.024,21.380 192.024,19.458 C192.024,18.016 191.405,17.269 190.121,17.269 ZM171.538,29.602 C167.335,29.655 163.706,28.053 163.573,22.981 C163.573,16.521 166.671,13.051 172.202,13.051 C175.786,13.051 177.600,15.133 177.600,19.351 C177.600,21.860 176.980,24.156 175.741,26.345 C174.502,28.534 173.086,29.602 171.538,29.602 ZM173.529,15.614 C172.158,15.614 170.963,16.254 169.945,17.536 C168.883,18.871 168.352,19.938 168.352,20.846 C168.352,22.341 168.750,23.782 169.591,25.171 C170.432,26.612 171.405,27.306 172.511,27.306 C173.219,27.306 174.016,26.451 174.901,24.690 C175.786,22.928 176.228,21.273 176.228,19.725 C176.228,17.002 175.343,15.614 173.529,15.614 ZM151.760,29.281 C151.760,31.471 151.893,34.033 152.202,36.863 C152.468,39.692 152.600,41.614 152.644,42.629 C152.644,42.896 152.158,43.056 151.229,43.056 C149.592,43.056 148.353,41.668 147.512,38.892 C146.671,36.115 146.229,32.538 146.229,28.160 C146.229,22.234 146.362,17.963 146.671,15.347 C146.893,13.425 148.485,12.624 149.725,12.624 C150.123,12.624 151.318,13.478 151.318,13.959 C151.318,20.205 151.406,24.850 151.583,27.946 C152.954,27.787 154.282,26.826 155.609,25.064 C156.892,23.302 157.556,21.433 157.556,19.511 C157.556,17.749 156.494,15.881 155.034,15.881 C154.282,15.881 153.751,16.094 153.441,16.521 C152.733,17.375 152.733,18.390 152.512,18.390 C151.937,18.390 151.539,17.536 151.539,16.628 C151.539,16.148 151.671,15.721 151.893,15.453 C152.556,14.813 153.485,14.332 154.724,14.012 C155.963,13.692 157.069,13.531 158.087,13.531 C160.388,13.531 162.114,15.453 162.114,18.230 C162.114,21.273 160.742,23.942 158.618,25.704 C156.450,27.466 154.238,28.587 151.760,29.281 ZM138.265,29.602 C134.858,29.602 132.513,28.641 131.274,26.772 C129.813,28.000 128.176,29.228 126.407,30.456 L126.407,33.339 C126.407,37.557 125.610,40.973 124.061,43.643 C122.469,46.313 120.035,47.647 116.761,47.647 C114.637,47.647 112.557,45.458 112.557,42.308 C112.557,39.532 115.610,36.703 121.406,32.485 C121.451,29.068 121.495,26.451 121.495,24.636 C119.327,27.626 117.247,29.015 114.106,29.015 C111.628,29.015 110.389,27.039 110.389,23.035 C110.389,21.059 111.274,18.871 113.044,16.575 C114.814,14.279 116.584,13.104 118.398,13.104 C120.035,13.104 121.185,13.905 121.937,15.507 C122.159,14.386 122.646,13.478 123.353,12.838 C123.752,12.410 124.238,12.197 124.814,12.197 C125.256,12.197 125.698,12.838 126.097,14.119 C126.495,15.400 126.716,16.415 126.716,17.109 L126.716,17.910 C126.716,19.992 126.672,22.341 126.583,25.331 C126.539,26.826 126.495,28.000 126.451,28.854 C128.088,27.626 129.459,26.505 130.654,25.491 C130.433,24.743 130.300,23.889 130.300,22.981 C130.300,20.099 130.920,17.643 132.203,15.667 C133.442,13.692 135.034,12.677 136.981,12.677 C137.512,12.677 138.176,12.784 138.928,13.051 C142.512,13.051 144.326,15.133 144.326,19.351 C144.326,21.860 143.707,24.156 142.468,26.345 C141.229,28.534 139.813,29.602 138.265,29.602 ZM121.406,34.033 C116.672,37.450 114.239,39.799 114.239,41.935 C114.239,44.017 115.655,45.885 116.716,45.885 C120.477,45.885 121.406,43.002 121.406,37.503 L121.406,34.033 ZM121.583,17.910 C121.274,16.148 120.433,14.760 119.858,14.760 C118.398,14.760 117.159,15.507 116.230,17.002 C115.300,18.497 114.814,20.152 114.814,21.914 C114.814,24.423 115.876,26.238 117.955,26.238 C119.017,26.238 120.212,25.010 121.539,22.608 C121.583,21.700 121.583,20.473 121.583,18.924 L121.583,17.910 ZM135.079,20.846 L135.079,21.059 C136.273,19.511 137.026,18.070 137.380,16.788 C136.097,18.016 135.079,19.938 135.079,20.846 ZM140.256,15.614 C139.769,15.614 139.282,15.721 138.840,15.934 C138.619,18.176 137.424,20.473 135.344,22.874 C135.919,25.277 137.512,27.306 139.238,27.306 C139.946,27.306 140.742,26.451 141.627,24.690 C142.512,22.928 142.955,21.273 142.955,19.725 C142.955,17.002 142.070,15.614 140.256,15.614 ZM100.655,47.701 C97.868,47.701 95.522,45.992 95.522,42.629 C95.522,42.415 95.567,41.988 95.567,41.828 C95.611,41.668 95.699,41.561 95.744,41.507 C95.876,41.347 95.965,41.294 96.009,41.294 C96.186,41.347 96.274,41.561 96.274,41.828 C96.319,42.255 96.452,42.736 96.673,43.269 C96.982,44.284 97.868,45.245 98.885,45.245 C100.257,45.245 101.407,44.017 102.425,41.561 C103.398,39.052 103.885,36.382 103.885,33.500 C103.885,29.548 102.911,26.932 100.965,25.704 C100.434,26.131 99.195,27.252 98.620,27.680 C98.310,27.894 98.089,28.000 97.912,28.000 C97.159,28.000 96.761,27.306 96.717,25.918 C96.717,25.010 98.487,23.996 100.257,23.729 C102.558,22.448 104.327,20.045 104.327,18.710 C104.327,17.643 103.531,16.895 102.115,16.895 C101.274,16.895 100.301,17.215 99.239,17.803 C98.133,18.443 97.513,18.924 97.292,19.298 C96.717,19.137 96.009,18.016 96.009,17.162 C96.009,16.254 96.540,15.453 97.558,14.760 C98.576,14.119 99.682,13.692 100.788,13.425 C101.894,13.211 102.867,13.104 103.752,13.104 C105.876,13.104 107.646,14.493 107.646,17.002 C107.646,19.030 105.964,21.380 102.558,24.049 C107.027,25.384 109.195,29.495 109.195,34.407 C109.195,37.770 108.354,40.814 106.673,43.590 C104.991,46.313 103.000,47.701 100.655,47.701 ZM8.463,13.158 C8.684,14.386 9.083,15.721 9.702,17.162 C10.322,18.657 11.029,19.404 11.781,19.404 C12.888,19.404 13.905,17.643 14.702,15.827 C15.189,14.760 15.896,12.784 16.250,12.090 L16.649,9.261 C17.047,7.499 17.268,6.591 18.109,5.523 C18.507,4.989 18.994,4.722 19.525,4.722 C19.923,4.722 20.542,4.883 21.383,5.150 C22.224,5.470 22.666,5.683 22.666,5.843 C22.666,6.004 22.533,7.072 22.224,9.100 C21.914,11.129 21.781,12.624 21.781,13.638 C21.781,19.137 22.224,22.661 22.755,24.743 C23.020,25.758 23.507,27.466 24.259,29.869 C24.259,30.029 23.817,30.242 22.976,30.403 C22.135,30.563 21.383,30.616 20.719,30.616 C19.170,30.616 18.020,29.709 17.312,27.946 C16.560,26.185 16.206,24.209 16.206,22.021 L16.250,15.347 C16.073,15.721 15.321,17.429 14.967,18.176 C14.790,18.550 14.525,19.084 14.171,19.672 C13.197,21.326 12.136,22.181 10.498,22.341 C8.596,22.341 7.268,20.793 6.560,17.696 C6.516,17.963 5.631,21.487 3.906,28.267 C3.861,28.694 2.888,29.442 2.003,29.442 C1.339,29.442 0.012,28.854 0.012,28.160 C0.012,27.573 0.189,26.772 0.543,25.758 C1.915,21.487 2.976,16.628 4.215,10.221 C4.835,7.072 5.321,4.669 5.675,3.067 C5.808,3.014 5.985,2.961 6.295,2.961 C7.843,2.961 9.392,4.348 9.392,6.057 C9.392,6.591 8.817,8.993 8.463,13.158 ZM34.038,13.051 C37.621,13.051 39.436,15.133 39.436,19.351 C39.436,21.860 38.816,24.156 37.577,26.345 C36.338,28.534 34.922,29.602 33.374,29.602 C29.170,29.655 25.542,28.053 25.409,22.981 C25.409,16.521 28.507,13.051 34.038,13.051 ZM31.427,25.171 C32.268,26.612 33.241,27.306 34.347,27.306 C35.055,27.306 35.851,26.451 36.737,24.690 C37.621,22.928 38.064,21.273 38.064,19.725 C38.064,17.002 37.179,15.614 35.365,15.614 C33.993,15.614 32.799,16.254 31.781,17.536 C30.719,18.871 30.188,19.938 30.188,20.846 C30.188,22.341 30.586,23.782 31.427,25.171 ZM44.834,12.624 C45.232,12.624 46.427,13.478 46.427,13.959 C46.427,20.205 46.515,24.850 46.692,27.946 C48.064,27.787 49.391,26.826 50.719,25.064 C52.002,23.302 52.665,21.433 52.665,19.511 C52.665,17.749 51.603,15.881 50.143,15.881 C49.391,15.881 48.860,16.094 48.550,16.521 C47.842,17.375 47.842,18.390 47.621,18.390 C47.046,18.390 46.648,17.536 46.648,16.628 C46.648,16.148 46.781,15.721 47.002,15.453 C47.666,14.813 48.595,14.332 49.833,14.012 C51.072,13.692 52.179,13.531 53.196,13.531 C55.497,13.531 57.223,15.453 57.223,18.230 C57.223,21.273 55.851,23.942 53.727,25.704 C51.559,27.466 49.347,28.587 46.869,29.281 C46.869,31.471 47.002,34.033 47.311,36.863 C47.577,39.692 47.710,41.614 47.754,42.629 C47.754,42.896 47.267,43.056 46.338,43.056 C44.701,43.056 43.462,41.668 42.621,38.892 C41.781,36.115 41.338,32.538 41.338,28.160 C41.338,22.234 41.471,17.963 41.781,15.347 C42.002,13.425 43.595,12.624 44.834,12.624 ZM66.340,11.147 C69.097,10.087 75.498,12.137 73.713,16.622 C73.620,17.133 73.413,17.564 73.063,17.910 C71.426,19.458 68.992,21.433 65.674,23.836 C66.161,25.064 67.045,25.918 68.373,26.505 C69.700,27.093 70.895,27.359 72.001,27.359 C72.709,27.359 75.010,26.826 75.762,26.826 C76.691,26.826 77.134,26.986 77.134,27.359 C77.134,27.626 77.045,27.840 76.912,28.000 C76.691,28.320 75.408,28.747 73.107,29.281 C70.806,29.762 69.435,30.029 68.948,30.029 C65.718,30.029 63.506,29.495 62.223,28.427 C60.320,26.879 59.170,24.263 59.170,21.540 C59.170,19.030 60.099,16.682 61.913,14.386 C63.321,12.604 64.784,11.538 66.340,11.147 ZM64.656,22.181 C65.939,21.594 67.355,20.686 68.948,19.565 C70.497,18.443 71.293,17.429 71.293,16.628 C71.293,15.881 70.851,15.293 70.010,14.867 C69.169,14.493 68.373,14.279 67.709,14.279 C65.718,14.279 63.993,16.361 63.993,19.084 C63.993,20.099 64.214,21.113 64.656,22.181 Z"/>
</svg>