<?xml version="1.0" encoding="utf-8"?>
<!DOCTYPE svg PUBLIC "-//W3C//DTD SVG 1.1//EN" "http://www.w3.org/Graphics/SVG/1.1/DTD/svg11.dtd">
<svg xmlns="http://www.w3.org/2000/svg" xmlns:xlink="http://www.w3.org/1999/xlink" x="0px" y="0px" width="234px" height="119px" viewBox="0 0 234 119" enable-background="new 0 0 234 119" xml:space="preserve">
	<path fill-rule="evenodd" fill="rgba(105, 155, 245, 1)" d="M142.928,72.051 C142.176,71.784 141.512,71.677 140.981,71.677 C139.034,71.677 137.442,72.692 136.203,74.667 C134.920,76.643 134.300,79.099 134.300,81.981 C134.300,82.889 134.433,83.743 134.654,84.491 C133.459,85.505 132.088,86.626 130.451,87.854 C130.495,87.000 130.539,85.826 130.583,84.331 C130.672,81.341 130.716,78.992 130.716,76.910 L130.716,76.109 C130.716,75.415 130.495,74.400 130.097,73.119 C129.698,71.838 129.256,71.197 128.814,71.197 C128.238,71.197 127.752,71.410 127.353,71.838 C126.645,72.478 126.159,73.386 125.937,74.507 C125.185,72.905 124.035,72.104 122.398,72.104 C120.584,72.104 118.814,73.279 117.044,75.575 C115.274,77.871 114.389,80.059 114.389,82.035 C114.389,86.039 115.628,88.015 118.106,88.015 C121.247,88.015 123.327,86.626 125.495,83.636 C125.495,85.451 125.451,88.068 125.406,91.485 C119.610,95.703 116.557,98.532 116.557,101.308 C116.557,104.458 118.637,106.648 120.761,106.648 C124.035,106.648 126.469,105.313 128.061,102.643 C129.610,99.973 130.407,96.557 130.407,92.339 L130.407,89.456 C132.176,88.228 133.813,87.000 135.274,85.772 C136.513,87.641 138.858,88.602 142.265,88.602 C143.813,88.602 145.229,87.534 146.468,85.345 C147.707,83.156 148.326,80.860 148.326,78.351 C148.326,74.133 146.512,72.051 142.928,72.051 ZM125.406,96.503 C125.406,102.002 124.477,104.885 120.716,104.885 C119.655,104.885 118.239,103.017 118.239,100.935 C118.239,98.799 120.672,96.450 125.406,93.033 L125.406,96.503 ZM125.583,77.924 C125.583,79.473 125.583,80.700 125.539,81.608 C124.212,84.010 123.017,85.238 121.955,85.238 C119.876,85.238 118.814,83.423 118.814,80.914 C118.814,79.152 119.300,77.497 120.230,76.002 C121.159,74.507 122.398,73.760 123.858,73.760 C124.433,73.760 125.274,75.148 125.583,76.910 L125.583,77.924 ZM139.079,79.846 C139.079,78.938 140.097,77.016 141.380,75.788 C141.026,77.070 140.273,78.511 139.079,80.059 L139.079,79.846 ZM145.627,83.690 C144.742,85.451 143.946,86.306 143.238,86.306 C141.512,86.306 139.919,84.277 139.344,81.874 C141.424,79.473 142.619,77.176 142.840,74.934 C143.282,74.721 143.769,74.614 144.256,74.614 C146.070,74.614 146.955,76.002 146.955,78.725 C146.955,80.273 146.512,81.928 145.627,83.690 ZM53.196,72.531 C52.179,72.531 51.072,72.692 49.833,73.012 C48.595,73.332 47.666,73.813 47.002,74.453 C46.781,74.721 46.648,75.148 46.648,75.628 C46.648,76.536 47.046,77.390 47.621,77.390 C47.842,77.390 47.842,76.375 48.550,75.521 C48.860,75.094 49.391,74.881 50.143,74.881 C51.603,74.881 52.665,76.749 52.665,78.511 C52.665,80.433 52.002,82.302 50.719,84.064 C49.391,85.826 48.064,86.787 46.692,86.946 C46.515,83.850 46.427,79.205 46.427,72.959 C46.427,72.478 45.232,71.624 44.834,71.624 C43.595,71.624 42.002,72.425 41.781,74.347 C41.471,76.963 41.338,81.234 41.338,87.160 C41.338,91.538 41.781,95.115 42.621,97.892 C43.462,100.668 44.701,102.056 46.338,102.056 C47.267,102.056 47.754,101.896 47.754,101.629 C47.710,100.614 47.577,98.692 47.311,95.863 C47.002,93.033 46.869,90.471 46.869,88.281 C49.347,87.587 51.559,86.466 53.727,84.704 C55.851,82.942 57.223,80.273 57.223,77.230 C57.223,74.453 55.497,72.531 53.196,72.531 ZM162.087,72.531 C161.069,72.531 159.963,72.692 158.724,73.012 C157.485,73.332 156.556,73.813 155.893,74.453 C155.671,74.721 155.539,75.148 155.539,75.628 C155.539,76.536 155.937,77.390 156.512,77.390 C156.733,77.390 156.733,76.375 157.441,75.521 C157.751,75.094 158.282,74.881 159.034,74.881 C160.494,74.881 161.556,76.749 161.556,78.511 C161.556,80.433 160.892,82.302 159.609,84.064 C158.282,85.826 156.954,86.787 155.583,86.946 C155.406,83.850 155.318,79.205 155.318,72.959 C155.318,72.478 154.123,71.624 153.725,71.624 C152.485,71.624 150.893,72.425 150.671,74.347 C150.362,76.963 150.229,81.234 150.229,87.160 C150.229,91.538 150.671,95.115 151.512,97.892 C152.353,100.668 153.592,102.056 155.229,102.056 C156.158,102.056 156.644,101.896 156.644,101.629 C156.600,100.614 156.468,98.692 156.202,95.863 C155.893,93.033 155.760,90.471 155.760,88.281 C158.238,87.587 160.450,86.466 162.618,84.704 C164.742,82.942 166.114,80.273 166.114,77.230 C166.114,74.453 164.388,72.531 162.087,72.531 ZM106.558,83.049 C109.965,80.380 111.646,78.030 111.646,76.002 C111.646,73.493 109.876,72.104 107.752,72.104 C106.867,72.104 105.894,72.211 104.788,72.425 C103.682,72.692 102.575,73.119 101.558,73.760 C100.540,74.453 100.009,75.254 100.009,76.162 C100.009,77.016 100.717,78.137 101.292,78.298 C101.513,77.924 102.133,77.443 103.239,76.803 C104.301,76.215 105.274,75.895 106.115,75.895 C107.531,75.895 108.327,76.643 108.327,77.710 C108.327,79.045 106.558,81.448 104.257,82.729 C102.487,82.996 100.717,84.010 100.717,84.918 C100.761,86.306 101.159,87.000 101.912,87.000 C102.089,87.000 102.310,86.894 102.620,86.680 C103.195,86.252 104.434,85.131 104.965,84.704 C106.911,85.932 107.885,88.548 107.885,92.500 C107.885,95.382 107.398,98.052 106.425,100.561 C105.407,103.017 104.257,104.245 102.885,104.245 C101.868,104.245 100.982,103.284 100.673,102.269 C100.452,101.736 100.319,101.255 100.274,100.828 C100.274,100.561 100.186,100.347 100.009,100.294 C99.965,100.294 99.876,100.347 99.744,100.507 C99.699,100.561 99.611,100.668 99.567,100.828 C99.567,100.988 99.522,101.415 99.522,101.629 C99.522,104.992 101.868,106.701 104.655,106.701 C107.000,106.701 108.991,105.313 110.673,102.590 C112.354,99.814 113.195,96.770 113.195,93.407 C113.195,88.495 111.027,84.384 106.558,83.049 ZM176.202,72.051 C170.671,72.051 167.573,75.521 167.573,81.981 C167.706,87.053 171.335,88.655 175.538,88.602 C177.086,88.602 178.502,87.534 179.741,85.345 C180.980,83.156 181.600,80.860 181.600,78.351 C181.600,74.133 179.786,72.051 176.202,72.051 ZM178.901,83.690 C178.016,85.451 177.219,86.306 176.511,86.306 C175.405,86.306 174.432,85.612 173.591,84.171 C172.750,82.782 172.352,81.341 172.352,79.846 C172.352,78.938 172.883,77.871 173.945,76.536 C174.963,75.254 176.158,74.614 177.529,74.614 C179.343,74.614 180.228,76.002 180.228,78.725 C180.228,80.273 179.786,81.928 178.901,83.690 ZM196.024,73.600 C195.405,73.600 194.829,73.706 194.254,73.867 C192.706,74.347 190.405,77.070 188.856,79.899 L188.900,78.404 C193.635,71.197 195.980,66.552 195.980,64.470 C195.980,62.067 194.608,59.611 192.086,59.611 C191.776,59.611 191.378,59.665 190.980,59.772 C189.564,60.145 188.281,61.053 187.175,62.601 C186.069,64.150 185.405,65.965 185.184,67.940 C184.432,74.614 184.033,80.220 184.033,84.758 C184.033,88.121 185.139,89.829 187.396,89.829 C190.095,89.829 192.750,88.548 195.316,85.986 C197.882,83.423 199.166,80.594 199.166,77.497 C199.166,74.881 198.104,73.600 196.024,73.600 ZM189.299,69.542 C189.343,67.780 189.431,66.979 189.785,65.271 C190.139,63.562 191.024,62.601 192.307,62.601 C193.635,62.601 194.298,63.616 194.298,65.591 C194.298,66.392 193.768,67.940 192.706,70.236 C191.599,72.531 190.360,74.721 188.989,76.910 L189.299,69.542 ZM194.166,83.957 C192.927,85.719 191.644,86.626 190.272,86.626 C189.210,86.626 188.679,85.772 188.679,84.010 L188.768,81.768 C189.520,80.487 190.449,79.259 191.555,78.030 C192.661,76.856 193.546,76.269 194.121,76.269 C195.405,76.269 196.024,77.016 196.024,78.458 C196.024,80.380 195.405,82.195 194.166,83.957 ZM231.997,82.675 C231.997,82.088 232.306,80.914 232.306,80.487 C232.306,79.793 231.953,79.419 231.289,79.419 C230.979,79.419 230.227,79.526 230.005,79.526 C230.448,78.137 230.669,76.749 230.669,75.361 C230.669,72.104 229.032,70.076 226.510,70.076 C224.873,70.076 223.501,70.930 222.395,72.585 C221.244,74.240 220.669,76.055 220.669,77.924 C220.669,81.127 222.837,82.355 225.669,82.355 C225.227,83.209 224.297,84.064 222.926,84.918 C221.510,85.772 220.493,86.199 219.829,86.199 C219.475,86.199 219.298,85.879 219.298,85.185 C219.298,83.957 219.563,82.088 219.563,81.234 C219.563,80.860 219.430,80.700 219.209,80.700 C217.837,80.700 216.024,81.768 215.670,83.423 C215.537,84.010 215.492,84.651 215.492,85.345 C215.492,86.093 215.625,86.787 215.847,87.480 C215.979,87.961 216.422,88.335 217.085,88.602 C217.749,88.869 218.280,88.975 218.678,88.975 C220.138,88.975 221.820,88.281 223.634,86.840 C225.448,85.451 226.864,84.010 227.882,82.516 C227.926,83.690 228.059,84.651 228.324,85.398 C229.032,87.534 231.067,88.975 232.882,88.975 C233.368,88.975 233.766,88.762 233.988,88.335 C232.660,86.252 231.997,84.331 231.997,82.675 ZM227.837,79.793 C226.200,79.793 224.431,78.511 224.431,76.749 C224.342,75.041 224.917,72.104 227.262,71.944 C228.545,71.944 229.209,72.959 229.209,74.934 C229.209,76.856 228.413,79.366 227.837,79.793 ZM34.038,72.051 C28.507,72.051 25.409,75.521 25.409,81.981 C25.542,87.053 29.170,88.655 33.374,88.602 C34.922,88.602 36.338,87.534 37.577,85.345 C38.816,83.156 39.436,80.860 39.436,78.351 C39.436,74.133 37.621,72.051 34.038,72.051 ZM36.737,83.690 C35.851,85.451 35.055,86.306 34.347,86.306 C33.241,86.306 32.268,85.612 31.427,84.171 C30.586,82.782 30.188,81.341 30.188,79.846 C30.188,78.938 30.719,77.871 31.781,76.536 C32.799,75.254 33.993,74.614 35.365,74.614 C37.179,74.614 38.064,76.002 38.064,78.725 C38.064,80.273 37.621,81.928 36.737,83.690 ZM211.466,79.099 C210.537,79.099 209.652,79.259 208.856,79.632 C207.838,80.059 206.776,80.754 206.422,80.967 L206.422,80.754 C206.422,79.793 207.042,76.749 207.086,76.696 C207.484,75.575 208.502,72.959 208.546,72.371 C208.546,71.944 208.280,71.731 207.705,71.731 C206.157,71.731 205.095,71.838 204.564,72.104 C203.546,72.638 202.661,75.148 201.865,79.686 C201.732,80.647 201.643,81.554 201.643,82.462 C201.643,87.160 203.325,88.655 207.086,88.655 C208.413,88.655 209.873,88.068 211.422,86.840 C212.971,85.665 213.723,84.277 213.723,82.675 C213.723,80.700 212.749,79.099 211.466,79.099 ZM210.272,85.665 C209.298,86.573 208.369,87.000 207.440,87.000 C206.953,87.000 206.378,84.972 206.378,83.049 C206.378,82.836 206.422,82.516 206.422,82.302 C207.086,81.501 208.856,80.754 209.917,80.754 C210.493,80.754 210.891,80.914 211.201,81.288 C211.510,81.661 211.687,82.142 211.687,82.782 C211.687,83.850 211.201,84.811 210.272,85.665 ZM21.781,72.638 C21.781,71.624 21.914,70.129 22.224,68.100 C22.533,66.072 22.666,65.004 22.666,64.843 C22.666,64.683 22.224,64.470 21.383,64.150 C20.542,63.883 19.923,63.722 19.525,63.722 C18.994,63.722 18.507,63.989 18.109,64.523 C17.268,65.591 17.047,66.499 16.649,68.261 L16.250,71.090 C15.896,71.784 15.189,73.760 14.702,74.827 C13.905,76.643 12.888,78.404 11.781,78.404 C11.029,78.404 10.322,77.657 9.702,76.162 C9.083,74.721 8.684,73.386 8.463,72.158 C8.817,67.993 9.392,65.591 9.392,65.057 C9.392,63.348 7.843,61.961 6.295,61.961 C5.985,61.961 5.808,62.014 5.675,62.067 C5.321,63.669 4.835,66.072 4.215,69.221 C2.976,75.628 1.915,80.487 0.543,84.758 C0.189,85.772 0.012,86.573 0.012,87.160 C0.012,87.854 1.339,88.442 2.003,88.442 C2.888,88.442 3.861,87.694 3.906,87.267 C5.631,80.487 6.516,76.963 6.560,76.696 C7.268,79.793 8.596,81.341 10.498,81.341 C12.136,81.181 13.197,80.326 14.171,78.672 C14.525,78.084 14.790,77.550 14.967,77.176 C15.321,76.429 16.073,74.721 16.250,74.347 L16.206,81.021 C16.206,83.209 16.560,85.185 17.312,86.946 C18.020,88.709 19.170,89.616 20.719,89.616 C21.383,89.616 22.135,89.563 22.976,89.403 C23.817,89.242 24.259,89.029 24.259,88.869 C23.507,86.466 23.020,84.758 22.755,83.743 C22.224,81.661 21.781,78.137 21.781,72.638 ZM80.859,63.070 C79.573,60.209 79.130,57.256 79.531,54.213 C80.106,51.031 80.073,47.381 79.431,43.266 C82.477,44.894 85.122,45.979 87.364,46.519 C88.141,46.533 89.321,45.540 90.906,43.541 C93.624,39.199 95.770,36.391 97.344,35.119 C98.999,34.951 100.457,34.686 101.718,34.322 C103.151,32.842 103.776,31.841 103.592,31.319 C103.443,31.126 102.998,31.293 102.257,31.821 C101.156,32.821 99.755,33.136 98.053,32.767 C97.239,32.742 96.598,32.823 96.130,33.010 C96.130,33.010 95.443,33.665 94.071,34.975 C91.032,37.285 88.606,39.442 86.794,41.445 C86.474,41.597 85.606,41.366 84.191,40.753 C80.876,39.092 78.193,36.983 76.141,34.428 C75.775,32.541 76.052,31.454 76.974,31.166 C77.347,31.274 77.737,31.339 78.139,31.352 C78.667,31.365 79.135,31.353 79.545,31.317 C79.708,31.315 79.858,31.297 79.994,31.264 C81.252,31.072 81.803,30.585 81.647,29.803 C81.625,29.444 81.721,29.152 81.934,28.928 C82.462,28.975 82.579,28.673 82.286,28.021 C82.687,27.758 82.764,27.494 82.518,27.229 C82.157,26.904 82.133,26.662 82.446,26.502 C83.258,26.083 83.411,25.696 82.903,25.341 C82.038,24.785 81.576,24.163 81.516,23.475 C81.547,23.156 81.568,22.960 81.574,22.947 C82.967,22.347 83.854,20.959 83.812,19.443 C83.696,15.248 78.435,15.336 75.528,16.306 C77.391,15.338 79.497,14.947 81.578,15.178 C82.523,10.406 81.944,5.450 79.912,1.013 C79.912,1.013 79.839,1.034 79.694,1.077 C79.592,3.473 78.855,5.394 77.481,6.841 C78.677,6.810 79.721,7.643 79.957,8.815 C80.193,9.987 79.552,11.158 78.438,11.593 C77.325,12.028 76.060,11.599 75.440,10.576 C74.820,9.554 75.025,8.234 75.925,7.448 C73.350,4.913 72.062,3.646 72.062,3.646 C71.276,4.612 70.882,5.095 70.882,5.095 C64.398,-1.465 58.519,0.921 51.659,3.385 L51.661,3.384 C52.990,5.282 55.857,7.556 60.098,8.310 C56.483,8.919 53.144,7.463 50.082,3.943 C47.346,0.575 42.841,-0.796 38.694,0.478 C34.974,1.619 32.210,4.683 31.408,8.420 C35.513,8.244 39.515,9.735 42.502,12.555 C39.234,10.160 35.470,9.220 31.211,9.735 C26.324,10.525 22.497,14.366 21.726,19.256 C20.956,24.147 23.415,28.979 27.823,31.233 C31.591,32.621 35.721,32.665 39.517,31.357 C41.147,36.968 46.521,40.641 52.341,40.122 C56.853,39.295 60.695,36.354 62.671,32.213 C64.189,28.706 66.497,27.288 69.595,27.958 C70.091,29.161 70.256,30.474 70.089,31.895 C66.771,34.128 65.111,35.244 65.111,35.244 C63.196,36.973 62.760,38.862 61.636,45.292 C61.406,49.377 60.687,53.595 59.477,57.944 C58.401,60.025 57.862,61.065 57.862,61.065 C55.911,63.917 56.566,67.083 59.827,70.564 C60.324,70.395 60.359,70.012 59.932,69.415 C59.235,66.298 58.886,64.739 58.886,64.739 C60.444,61.226 61.223,59.469 61.223,59.469 C63.983,54.637 65.755,50.227 66.538,46.239 C66.363,49.433 66.823,52.871 67.919,56.552 C71.160,57.273 71.453,60.739 76.093,62.207 C70.991,61.122 69.216,57.818 66.802,57.812 C65.109,60.052 64.342,62.888 64.713,65.717 C64.923,67.318 65.489,68.825 66.340,70.147 C64.784,70.538 63.321,71.604 61.913,73.386 C60.099,75.682 59.170,78.030 59.170,80.540 C59.170,83.263 60.320,85.879 62.223,87.427 C63.506,88.495 65.718,89.029 68.948,89.029 C69.435,89.029 70.806,88.762 73.107,88.281 C75.408,87.747 76.691,87.320 76.912,87.000 C77.045,86.840 77.134,86.626 77.134,86.359 C77.134,85.986 76.691,85.826 75.762,85.826 C75.010,85.826 72.709,86.359 72.001,86.359 C70.895,86.359 69.700,86.093 68.373,85.505 C67.045,84.918 66.161,84.064 65.674,82.836 C68.992,80.433 71.426,78.458 73.063,76.910 C73.413,76.564 73.621,76.133 73.713,75.622 C75.207,76.351 76.966,77.154 78.999,78.033 C86.328,82.096 88.137,86.797 84.424,92.136 C80.806,93.652 77.111,93.718 73.339,92.333 C64.706,90.501 59.008,92.195 56.246,97.412 C55.013,99.424 54.820,101.906 55.726,104.084 C56.632,106.264 58.527,107.877 60.823,108.422 C59.415,107.742 58.481,106.359 58.376,104.799 C58.271,103.239 59.011,101.743 60.314,100.880 C63.795,98.761 67.305,98.007 70.842,98.618 C74.172,99.482 77.301,99.393 80.227,98.349 C81.778,97.628 83.110,96.507 84.087,95.102 C83.360,97.228 81.670,98.886 79.529,99.570 C78.422,101.300 76.847,102.963 74.804,104.558 C72.038,106.902 71.303,110.868 73.044,114.047 C74.785,117.227 78.523,118.743 81.988,117.675 C80.194,116.973 78.872,115.418 78.469,113.534 C78.066,111.650 78.637,109.690 79.987,108.316 C86.637,102.558 88.628,97.798 85.961,94.037 C91.107,90.008 93.647,83.491 92.584,77.042 C91.522,70.592 87.026,65.236 80.859,63.070 ZM26.620,26.248 C26.648,25.298 27.110,24.414 27.872,23.846 C28.634,23.279 29.613,23.091 30.531,23.337 C32.708,23.441 35.299,25.762 38.304,30.297 C31.134,31.595 27.239,30.245 26.620,26.248 ZM68.948,78.565 C67.355,79.686 65.939,80.594 64.656,81.181 C64.213,80.113 63.993,79.099 63.993,78.084 C63.993,75.361 65.718,73.279 67.709,73.279 C68.373,73.279 69.169,73.493 70.010,73.867 C70.851,74.293 71.293,74.881 71.293,75.628 C71.293,76.429 70.497,77.443 68.948,78.565 ZM99.055,29.708 C102.192,29.497 104.563,26.782 104.352,23.646 C104.140,20.509 101.425,18.138 98.289,18.349 C95.152,18.561 92.781,21.276 92.992,24.413 C93.204,27.549 95.919,29.920 99.055,29.708 ZM101.790,21.892 C102.615,23.014 102.716,24.511 102.050,25.733 C101.383,26.955 100.069,27.681 98.680,27.594 C100.377,27.172 101.528,25.593 101.410,23.847 C101.292,22.101 99.940,20.691 98.201,20.500 C99.566,20.228 100.965,20.771 101.790,21.892 ZM156.268,44.050 C158.299,43.914 159.834,42.156 159.697,40.125 C159.560,38.095 157.802,36.560 155.772,36.696 C153.741,36.834 152.206,38.591 152.343,40.622 C152.480,42.653 154.237,44.188 156.268,44.050 ZM158.039,38.990 C158.573,39.716 158.639,40.686 158.207,41.477 C157.775,42.268 156.925,42.738 156.025,42.682 C157.124,42.408 157.869,41.386 157.793,40.256 C157.716,39.126 156.841,38.213 155.715,38.089 C156.599,37.913 157.505,38.264 158.039,38.990 ZM36.521,49.955 C36.423,48.505 35.168,47.408 33.717,47.506 C32.267,47.604 31.170,48.859 31.268,50.310 C31.366,51.760 32.621,52.856 34.072,52.758 C35.522,52.661 36.619,51.405 36.521,49.955 ZM33.676,48.500 C34.308,48.375 34.955,48.626 35.337,49.144 C35.718,49.663 35.765,50.355 35.456,50.920 C35.148,51.485 34.540,51.821 33.898,51.781 C34.683,51.586 35.215,50.855 35.160,50.048 C35.106,49.241 34.481,48.589 33.676,48.500 ZM46.727,68.197 C48.950,68.047 50.632,66.122 50.482,63.898 C50.331,61.675 48.407,59.993 46.183,60.143 C43.959,60.293 42.278,62.218 42.428,64.442 C42.578,66.665 44.502,68.347 46.727,68.197 ZM48.666,62.655 C49.250,63.450 49.322,64.512 48.849,65.378 C48.377,66.245 47.445,66.759 46.460,66.698 C47.664,66.398 48.480,65.279 48.396,64.041 C48.312,62.804 47.354,61.803 46.121,61.668 C47.089,61.475 48.081,61.860 48.666,62.655 ZM96.271,52.321 C94.821,52.418 93.724,53.673 93.822,55.124 C93.920,56.575 95.175,57.671 96.626,57.573 C98.076,57.475 99.173,56.220 99.075,54.770 C98.977,53.319 97.722,52.223 96.271,52.321 ZM98.010,55.735 C97.702,56.300 97.095,56.635 96.452,56.595 C97.237,56.400 97.769,55.670 97.715,54.863 C97.660,54.056 97.035,53.403 96.231,53.315 C96.862,53.189 97.509,53.440 97.891,53.959 C98.272,54.477 98.319,55.169 98.010,55.735 ZM109.421,46.030 L110.186,46.030 C110.322,46.030 110.380,45.972 110.380,45.836 L110.380,43.832 L111.968,45.875 C112.045,45.981 112.142,46.030 112.277,46.030 L113.420,46.030 C113.575,46.030 113.575,45.972 113.497,45.875 L111.464,43.426 L113.391,41.151 C113.478,41.054 113.449,40.996 113.313,40.996 L112.316,40.996 C112.181,40.996 112.084,41.044 112.006,41.151 L110.380,43.203 L110.380,41.189 C110.380,41.054 110.322,40.996 110.186,40.996 L109.421,40.996 C109.285,40.996 109.228,41.054 109.228,41.189 L109.228,45.836 C109.228,45.972 109.285,46.030 109.421,46.030 ZM145.350,58.489 C146.173,58.489 146.880,58.228 147.064,58.015 C147.141,57.928 147.131,57.850 147.073,57.763 L146.870,57.453 C146.841,57.415 146.812,57.376 146.618,57.434 C146.221,57.560 145.853,57.676 145.476,57.676 C144.624,57.676 144.333,57.076 144.256,56.262 L146.241,56.262 C147.044,56.262 147.296,56.040 147.296,55.294 C147.296,53.891 146.396,53.213 145.224,53.213 C143.656,53.213 143.075,54.414 143.075,55.904 C143.075,57.260 143.559,58.489 145.350,58.489 ZM145.273,54.026 C145.786,54.026 146.124,54.549 146.124,55.120 C146.124,55.411 146.047,55.449 145.747,55.449 L144.256,55.449 C144.314,54.685 144.566,54.026 145.273,54.026 ZM153.831,58.489 C155.690,58.489 156.174,57.299 156.174,55.856 C156.174,54.423 155.690,53.213 153.831,53.213 C151.972,53.213 151.488,54.423 151.488,55.866 C151.488,57.308 151.972,58.489 153.831,58.489 ZM153.831,54.084 C154.799,54.084 155.012,54.898 155.012,55.856 C155.012,56.824 154.799,57.618 153.831,57.618 C152.863,57.618 152.650,56.824 152.650,55.856 C152.650,54.898 152.863,54.084 153.831,54.084 ZM175.325,58.489 C175.973,58.489 176.467,58.247 176.719,57.783 L176.738,57.783 L176.835,58.180 C176.864,58.315 176.893,58.374 177.028,58.374 L177.513,58.374 C177.648,58.374 177.706,58.315 177.706,58.180 L177.706,55.798 C177.706,54.414 177.280,53.213 175.605,53.213 C174.831,53.213 174.124,53.474 173.930,53.687 C173.853,53.774 173.863,53.852 173.921,53.939 L174.124,54.249 C174.153,54.288 174.192,54.326 174.376,54.268 C174.812,54.133 175.160,54.026 175.470,54.026 C176.273,54.026 176.477,54.752 176.525,55.159 L175.528,55.159 C174.424,55.159 173.504,55.488 173.504,56.737 C173.504,57.928 174.347,58.489 175.325,58.489 ZM175.528,55.972 L176.545,55.972 L176.545,56.253 C176.545,57.240 176.186,57.676 175.596,57.676 C174.908,57.676 174.676,57.095 174.676,56.708 C174.676,56.243 175.015,55.972 175.528,55.972 ZM159.563,53.533 L159.563,53.959 C159.563,54.094 159.621,54.152 159.756,54.152 L160.821,54.152 L160.821,58.180 C160.821,58.315 160.879,58.374 161.015,58.374 L161.790,58.374 C161.925,58.374 161.983,58.315 161.983,58.180 L161.983,54.152 L163.048,54.152 C163.184,54.152 163.242,54.094 163.242,53.959 L163.242,53.533 C163.242,53.397 163.184,53.339 163.048,53.339 L159.756,53.339 C159.621,53.339 159.563,53.397 159.563,53.533 ZM119.403,48.160 L120.177,48.160 C120.313,48.160 120.371,48.102 120.371,47.966 L120.371,45.439 L120.391,45.439 C120.633,45.807 121.058,46.146 121.881,46.146 C123.005,46.146 123.963,45.507 123.963,43.494 C123.963,41.499 123.014,40.870 121.911,40.870 C121.175,40.870 120.594,41.093 120.197,41.596 L120.177,41.596 L120.081,41.189 C120.052,41.054 120.023,40.996 119.887,40.996 L119.403,40.996 C119.267,40.996 119.209,41.054 119.209,41.189 L119.209,47.966 C119.209,48.102 119.267,48.160 119.403,48.160 ZM121.707,41.683 C122.414,41.683 122.801,42.032 122.801,43.494 C122.801,45.004 122.385,45.333 121.717,45.333 C120.865,45.333 120.371,44.810 120.371,43.494 C120.371,42.206 120.846,41.683 121.707,41.683 ZM166.001,58.489 C166.824,58.489 167.531,58.228 167.715,58.015 C167.792,57.928 167.783,57.850 167.725,57.763 L167.521,57.453 C167.492,57.415 167.463,57.376 167.269,57.434 C166.873,57.560 166.504,57.676 166.127,57.676 C165.275,57.676 164.985,57.076 164.907,56.262 L166.892,56.262 C167.695,56.262 167.947,56.040 167.947,55.294 C167.947,53.891 167.046,53.213 165.875,53.213 C164.307,53.213 163.726,54.414 163.726,55.904 C163.726,57.260 164.210,58.489 166.001,58.489 ZM165.924,54.026 C166.437,54.026 166.776,54.549 166.776,55.120 C166.776,55.411 166.698,55.449 166.398,55.449 L164.907,55.449 C164.965,54.685 165.217,54.026 165.924,54.026 ZM168.625,58.374 L168.731,58.374 C169.738,58.374 170.106,57.870 170.223,56.863 L170.522,54.152 L171.471,54.152 L171.471,58.180 C171.471,58.315 171.529,58.374 171.665,58.374 L172.439,58.374 C172.575,58.374 172.633,58.315 172.633,58.180 L172.633,53.533 C172.633,53.397 172.575,53.339 172.439,53.339 L169.641,53.339 C169.506,53.339 169.448,53.397 169.438,53.533 L169.060,56.795 C168.993,57.337 168.867,57.560 168.693,57.560 L168.625,57.560 C168.489,57.560 168.431,57.618 168.431,57.754 L168.431,58.180 C168.431,58.315 168.489,58.374 168.625,58.374 ZM151.004,53.959 L151.004,53.533 C151.004,53.397 150.946,53.339 150.811,53.339 L148.361,53.339 C148.225,53.339 148.167,53.397 148.167,53.533 L148.167,58.180 C148.167,58.315 148.225,58.374 148.361,58.374 L149.135,58.374 C149.271,58.374 149.329,58.315 149.329,58.180 L149.329,54.152 L150.811,54.152 C150.946,54.152 151.004,54.094 151.004,53.959 ZM126.723,53.339 C126.626,53.339 126.587,53.378 126.587,53.474 L126.587,58.238 C126.587,58.334 126.626,58.374 126.723,58.374 L128.572,58.374 C129.666,58.374 130.460,57.754 130.460,56.931 C130.460,56.292 129.976,55.837 129.143,55.740 L129.143,55.720 C129.811,55.517 130.092,55.159 130.092,54.665 C130.092,53.833 129.308,53.339 128.039,53.339 L126.723,53.339 ZM129.298,56.873 C129.298,57.182 129.114,57.560 128.349,57.560 L127.749,57.560 L127.749,56.205 L128.349,56.205 C129.075,56.205 129.298,56.534 129.298,56.873 ZM128.920,54.781 C128.920,55.217 128.543,55.430 128.165,55.430 L127.749,55.430 L127.749,54.142 L128.029,54.142 C128.640,54.142 128.920,54.414 128.920,54.781 ZM127.081,46.146 C128.940,46.146 129.424,44.955 129.424,43.513 C129.424,42.080 128.940,40.870 127.081,40.870 C125.222,40.870 124.738,42.080 124.738,43.523 C124.738,44.965 125.222,46.146 127.081,46.146 ZM127.081,41.741 C128.049,41.741 128.262,42.554 128.262,43.513 C128.262,44.481 128.049,45.275 127.081,45.275 C126.112,45.275 125.900,44.481 125.900,43.513 C125.900,42.554 126.112,41.741 127.081,41.741 ZM115.860,56.863 L116.159,54.152 L117.108,54.152 L117.108,58.180 C117.108,58.315 117.166,58.374 117.302,58.374 L118.076,58.374 C118.212,58.374 118.270,58.315 118.270,58.180 L118.270,53.533 C118.270,53.397 118.212,53.339 118.076,53.339 L115.279,53.339 C115.143,53.339 115.085,53.397 115.075,53.533 L114.698,56.795 C114.630,57.337 114.504,57.560 114.330,57.560 L114.262,57.560 C114.126,57.560 114.069,57.618 114.069,57.754 L114.069,58.180 C114.069,58.315 114.126,58.374 114.262,58.374 L114.369,58.374 C115.375,58.374 115.743,57.870 115.860,56.863 ZM120.197,58.374 C120.284,58.374 120.352,58.334 120.410,58.257 L121.291,56.844 L121.552,56.844 L121.552,58.180 C121.552,58.315 121.611,58.374 121.746,58.374 L122.521,58.374 C122.656,58.374 122.714,58.315 122.714,58.180 L122.714,53.533 C122.714,53.397 122.656,53.339 122.521,53.339 L120.962,53.339 C119.907,53.339 119.171,54.133 119.171,55.101 C119.171,55.788 119.558,56.389 120.158,56.669 L119.084,58.257 C119.035,58.334 119.035,58.374 119.141,58.374 L120.197,58.374 ZM121.098,54.152 L121.552,54.152 L121.552,56.030 L121.098,56.030 C120.604,56.030 120.342,55.720 120.342,55.101 C120.342,54.481 120.604,54.152 121.098,54.152 ZM131.234,56.737 C131.234,57.928 132.076,58.489 133.054,58.489 C133.703,58.489 134.197,58.247 134.449,57.783 L134.468,57.783 L134.565,58.180 C134.594,58.315 134.623,58.374 134.758,58.374 L135.242,58.374 C135.378,58.374 135.436,58.315 135.436,58.180 L135.436,55.798 C135.436,54.414 135.010,53.213 133.335,53.213 C132.560,53.213 131.854,53.474 131.660,53.687 C131.583,53.774 131.592,53.852 131.650,53.939 L131.854,54.249 C131.883,54.288 131.921,54.326 132.105,54.268 C132.541,54.133 132.890,54.026 133.200,54.026 C134.003,54.026 134.206,54.752 134.255,55.159 L133.258,55.159 C132.154,55.159 131.234,55.488 131.234,56.737 ZM134.274,55.972 L134.274,56.253 C134.274,57.240 133.916,57.676 133.325,57.676 C132.638,57.676 132.405,57.095 132.405,56.708 C132.405,56.243 132.744,55.972 133.258,55.972 L134.274,55.972 ZM115.608,45.953 L114.698,47.986 C114.640,48.102 114.698,48.160 114.814,48.160 L115.676,48.160 C115.811,48.160 115.889,48.102 115.947,47.986 L118.599,41.170 C118.658,41.054 118.599,40.996 118.483,40.996 L117.651,40.996 C117.515,40.996 117.438,41.054 117.389,41.179 L116.208,44.878 L115.037,41.179 C114.998,41.054 114.921,40.996 114.785,40.996 L113.894,40.996 C113.759,40.996 113.720,41.054 113.778,41.170 L115.608,45.953 ZM135.727,41.809 L136.792,41.809 L136.792,45.836 C136.792,45.972 136.850,46.030 136.985,46.030 L137.760,46.030 C137.895,46.030 137.953,45.972 137.953,45.836 L137.953,41.809 L139.018,41.809 C139.154,41.809 139.212,41.751 139.212,41.615 L139.212,41.189 C139.212,41.054 139.154,40.996 139.018,40.996 L135.727,40.996 C135.591,40.996 135.533,41.054 135.533,41.189 L135.533,41.615 C135.533,41.751 135.591,41.809 135.727,41.809 ZM130.489,48.160 L131.263,48.160 C131.399,48.160 131.457,48.102 131.457,47.966 L131.457,45.439 L131.476,45.439 C131.718,45.807 132.144,46.146 132.967,46.146 C134.090,46.146 135.049,45.507 135.049,43.494 C135.049,41.499 134.100,40.870 132.996,40.870 C132.260,40.870 131.679,41.093 131.282,41.596 L131.263,41.596 L131.166,41.189 C131.137,41.054 131.108,40.996 130.973,40.996 L130.489,40.996 C130.353,40.996 130.295,41.054 130.295,41.189 L130.295,47.966 C130.295,48.102 130.353,48.160 130.489,48.160 ZM132.793,41.683 C133.500,41.683 133.887,42.032 133.887,43.494 C133.887,45.004 133.470,45.333 132.803,45.333 C131.950,45.333 131.457,44.810 131.457,43.494 C131.457,42.206 131.931,41.683 132.793,41.683 ZM113.681,57.560 L113.139,57.560 L113.139,53.533 C113.139,53.397 113.081,53.339 112.945,53.339 L110.244,53.339 C110.118,53.339 110.060,53.397 110.041,53.533 L109.567,56.853 C109.528,57.395 109.373,57.618 109.199,57.618 L109.034,57.618 C108.898,57.618 108.840,57.676 108.840,57.812 L108.840,60.019 C108.840,60.154 108.898,60.213 109.034,60.213 L109.615,60.213 C109.750,60.213 109.808,60.154 109.808,60.019 L110.002,58.374 L112.713,58.374 L112.907,60.019 C112.907,60.154 112.965,60.213 113.100,60.213 L113.681,60.213 C113.817,60.213 113.875,60.154 113.875,60.019 L113.875,57.754 C113.875,57.618 113.817,57.560 113.681,57.560 ZM111.977,57.560 L110.496,57.560 C110.612,57.376 110.699,57.163 110.728,56.921 L111.116,54.152 L111.977,54.152 L111.977,57.560 ZM138.670,53.533 L138.670,57.560 L137.469,57.560 L137.469,53.533 C137.469,53.397 137.411,53.339 137.276,53.339 L136.501,53.339 C136.366,53.339 136.307,53.397 136.307,53.533 L136.307,58.180 C136.307,58.315 136.366,58.374 136.501,58.374 L142.010,58.374 C142.146,58.374 142.203,58.315 142.203,58.180 L142.203,53.533 C142.203,53.397 142.146,53.339 142.010,53.339 L141.235,53.339 C141.100,53.339 141.042,53.397 141.042,53.533 L141.042,57.560 L139.832,57.560 L139.832,53.533 C139.832,53.397 139.773,53.339 139.638,53.339 L138.863,53.339 C138.728,53.339 138.670,53.397 138.670,53.533 Z"/>
</svg>