<svg xmlns="http://www.w3.org/2000/svg" viewBox="0 0 16 16"><path d="M 8 2 C 7.6127464 2 7.2823653 2.2123607 7.0429688 2.4824219 C 6.8035721 2.752483 6.6211307 3.0950226 6.4707031 3.4960938 C 6.1799451 4.2713146 6.0148821 5.2774828 6.0039062 6.3867188 C 5.6976984 7.1966685 5.1317698 7.9265606 4.6191406 8.5507812 C 4.3297874 8.0194041 4 7.2302761 4 6 A 0.50005 0.50005 0 0 0 3.9824219 5.8808594 C 3.9353992 5.036837 3.4434284 4.4756205 2.9726562 4.2402344 C 2.4783994 3.9931059 2 4 2 4 L 2 5 C 2 5 2.2716007 5.0068941 2.5273438 5.1347656 C 2.7820662 5.2621268 2.9982785 5.4165415 3 5.9941406 A 0.50005 0.50005 0 0 0 3 6 C 3 6.6388889 2.7759709 7.3392245 2.5292969 8.0175781 C 2.2826228 8.6959317 2 9.3333333 2 10 C 2 11.102523 2.5737488 12.143811 3.6054688 12.861328 C 4.6371887 13.578846 6.1126034 14 8 14 C 9.3325738 14 10.546945 13.645089 11.458984 13.037109 C 11.754857 12.839877 12.004032 12.602524 12.228516 12.349609 C 13.262095 11.502071 13.645397 10.045709 13.837891 8.8105469 C 14.033386 7.5561173 14 6.484375 14 6.484375 A 0.50005 0.50005 0 0 0 13.5 6 L 9.9824219 6 C 9.9402807 5.0458847 9.785584 4.1794082 9.5292969 3.4960938 C 9.3788693 3.0950226 9.1964279 2.752483 8.9570312 2.4824219 C 8.7176348 2.2123607 8.3872536 2 8 2 z M 8 3 C 8.0267464 3 8.0895059 3.0117018 8.2089844 3.1464844 C 8.3284628 3.281267 8.4707245 3.5248523 8.5917969 3.8476562 C 8.794507 4.3881234 8.9371877 5.149904 8.9804688 6 L 7.0195312 6 C 7.0628123 5.149904 7.205493 4.3881234 7.4082031 3.8476562 C 7.5292755 3.5248524 7.6715372 3.281267 7.7910156 3.1464844 C 7.9104941 3.0117018 7.9732536 3 8 3 z M 6.8261719 7 L 9.2382812 7 C 9.801002 7.8646596 10.687621 8.5487331 11.314453 9.125 C 11.768574 9.5424161 12 10.007796 12 10.5 C 12 11.125824 11.621008 11.727308 10.904297 12.205078 C 10.187586 12.682849 9.1524262 13 8 13 C 6.2623966 13 4.9878113 12.605748 4.1757812 12.041016 C 3.3637512 11.476283 3 10.768477 3 10 C 3 9.6666667 3.2173772 9.0540683 3.4707031 8.3574219 C 3.4807871 8.3296899 3.4820485 8.2917309 3.4921875 8.2636719 C 3.8358331 9.1706053 4.203125 9.8105469 4.203125 9.8105469 A 0.50005 0.50005 0 0 0 4.9453125 9.8554688 C 5.6315873 9.1781716 6.3607835 8.1187559 6.8261719 7 z M 10.513672 7 L 12.966797 7 C 12.967548 7.3137601 12.988537 7.7667461 12.849609 8.6582031 C 12.815204 8.8789713 12.763399 9.1031198 12.710938 9.3261719 C 12.535833 8.9795729 12.290246 8.6626396 11.992188 8.3886719 C 11.505627 7.9413617 10.951564 7.4668776 10.513672 7 z"></path></svg>