<svg xmlns="http://www.w3.org/2000/svg" viewBox="0 0 16 16"><path d="M 5.5 2 C 4.6774952 2 4 2.6774952 4 3.5 C 4 4.3225048 4.6774952 5 5.5 5 C 6.3225048 5 7 4.3225048 7 3.5 C 7 2.6774952 6.3225048 2 5.5 2 z M 5.5 3 C 5.7820647 3 6 3.2179353 6 3.5 C 6 3.7820647 5.7820647 4 5.5 4 C 5.2179353 4 5 3.7820647 5 3.5 C 5 3.2179353 5.2179353 3 5.5 3 z M 0.5 4 A 0.50005 0.50005 0 1 0 0.5 5 C 0.7814686 5 1 5.2185314 1 5.5 L 1 8.5 C 1 9.88857 1.8227084 11.083572 3 11.648438 L 3 12 C 3 12.557469 2.5574686 13 2 13 L 2 14 C 3.0985314 14 4 13.098531 4 12 L 4 11.949219 C 4.1648291 11.973212 4.3287174 12 4.5 12 L 10.5 12 C 10.671283 12 10.835171 11.973212 11 11.949219 L 11 12 C 11 13.098531 11.901469 14 13 14 L 13 13 C 12.442531 13 12 12.557469 12 12 L 12 11.648438 C 13.177292 11.083571 14 9.88857 14 8.5 L 14 5.5 C 14 5.2185314 14.218531 5 14.5 5 A 0.50005 0.50005 0 1 0 14.5 4 C 13.677469 4 13 4.6774686 13 5.5 L 13 6 L 12 6 L 12 7 L 13 7 L 13 8.5 C 13 9.886833 11.886833 11 10.5 11 L 4.5 11 C 3.113167 11 2 9.886833 2 8.5 L 2 7 L 7.125 7 L 7.125 6 L 2 6 L 2 5.5 C 2 4.6774686 1.3225314 4 0.5 4 z M 9.5 6 C 8.6774952 6 8 6.6774952 8 7.5 C 8 8.3225048 8.6774952 9 9.5 9 C 10.322505 9 11 8.3225048 11 7.5 C 11 6.6774952 10.322505 6 9.5 6 z M 9.5 7 C 9.7820647 7 10 7.2179353 10 7.5 C 10 7.7820647 9.7820647 8 9.5 8 C 9.2179353 8 9 7.7820647 9 7.5 C 9 7.2179353 9.2179353 7 9.5 7 z"></path></svg>